<mxfile host="Electron" modified="2024-05-01T23:44:01.272Z" agent="Mozilla/5.0 (Windows NT 10.0; Win64; x64) AppleWebKit/537.36 (KHTML, like Gecko) draw.io/24.2.5 Chrome/120.0.6099.109 Electron/28.1.0 Safari/537.36" etag="uPD47p93qMfrTR8upNRX" version="24.2.5" type="device">
  <diagram name="Page-1" id="TP7quZP6ADXMAQoMUB6F">
    <mxGraphModel dx="2074" dy="1357" grid="1" gridSize="10" guides="1" tooltips="1" connect="1" arrows="1" fold="1" page="1" pageScale="1" pageWidth="850" pageHeight="1100" math="0" shadow="0">
      <root>
        <mxCell id="0" />
        <mxCell id="1" parent="0" />
        <UserObject label="" link="https://menckend.github.io/alpha" tags="targets" id="9lXPEuKndD_ymQvPXGdh-1">
          <mxCell style="ellipse;whiteSpace=wrap;html=1;" parent="1" vertex="1">
            <mxGeometry x="360" y="650" width="120" height="80" as="geometry" />
          </mxCell>
        </UserObject>
        <UserObject label="" link="data:action/json,{&quot;title&quot;:&quot;toggler&quot;,&quot;actions&quot;:[{&quot;toggle&quot;:{&quot;tags&quot;:[&quot;targets&quot;]}}]}" id="9lXPEuKndD_ymQvPXGdh-2">
          <mxCell style="ellipse;whiteSpace=wrap;html=1;" parent="1" vertex="1">
            <mxGeometry x="360" y="770" width="120" height="80" as="geometry" />
          </mxCell>
        </UserObject>
      </root>
    </mxGraphModel>
  </diagram>
</mxfile>
